<?xml version="1.0" encoding="utf-8"?>
<svg version="1.1" id="Layer_1" xmlns="http://www.w3.org/2000/svg" xmlns:xlink="http://www.w3.org/1999/xlink" x="0px" y="0px"
	 viewBox="0 0 1280 1280" style="enable-background:new 0 0 1280 1280;" xml:space="preserve">
<style type="text/css">
	.st0{fill:#FFFFFF;stroke:#000000;stroke-width:40;stroke-linecap:round;stroke-miterlimit:10;}
</style>
<path class="st0" d="M1169.88,86.89c-172.45,66.37-737.76-59.46-928.57,0S49.73,266.96,53.56,294.31
	c4.85,34.64,65.31,201.89,360.2,124.45s809.24,7.93,809.24,7.93"/>
<path class="st0" d="M71,528.01c128-13,554.9-109.85,828-84.93c65,5.93,247,6.93,307,79.93c23.9,29.08,92.53,233.01-69,292
	c-178,65-407.28-12.2-528-23.01c-67-6-544,18-544,18"/>
<path class="st0" d="M1186.82,893.58c-95.28,2.39-416.44-8.2-566-36.47C422.74,819.65,203.21,841.88,158,879.05
	C61,958.79,65,1024,61.82,1067.08c-3.19,43.33,17,168.11,136,167.04S462,1206.74,547,1197.05S851,1180,924,1182
	c72.17,1.98,269-22.78,304-12"/>
<path class="st0" d="M1148.02,1149c-17.67-81.87-7.82-183.54,14.98-230"/>
<path class="st0" d="M131,798c32-124-20-268-20-268"/>
<path class="st0" d="M1150.98,98C1118,203,1175,398,1175,398"/>
</svg>
